<svg width="35" height="35" viewBox="0 0 35 35" fill="none" xmlns="http://www.w3.org/2000/svg">
<path d="M0 3C0 1.34315 1.34315 0 3 0H32C33.6569 0 35 1.34315 35 3V32C35 33.6569 33.6569 35 32 35H3C1.34315 35 0 33.6569 0 32V3Z" fill="#4B5563"/>
<path d="M13.494 24V12.228H17.256C18.072 12.228 18.792 12.318 19.416 12.498C20.052 12.678 20.55 12.984 20.91 13.416C21.282 13.836 21.468 14.406 21.468 15.126C21.468 15.678 21.324 16.2 21.036 16.692C20.748 17.172 20.346 17.502 19.83 17.682V17.754C20.478 17.898 21.012 18.204 21.432 18.672C21.864 19.128 22.08 19.752 22.08 20.544C22.08 21.324 21.882 21.972 21.486 22.488C21.102 23.004 20.568 23.388 19.884 23.64C19.2 23.88 18.426 24 17.562 24H13.494ZM15.582 17.088H17.076C17.892 17.088 18.486 16.938 18.858 16.638C19.23 16.338 19.416 15.936 19.416 15.432C19.416 14.856 19.224 14.448 18.84 14.208C18.456 13.968 17.88 13.848 17.112 13.848H15.582V17.088ZM15.582 22.38H17.346C18.21 22.38 18.876 22.224 19.344 21.912C19.812 21.588 20.046 21.096 20.046 20.436C20.046 19.812 19.818 19.362 19.362 19.086C18.906 18.798 18.234 18.654 17.346 18.654H15.582V22.38Z" fill="white"/>
</svg>
